G75*
%MOIN*%
%OFA0B0*%
%FSLAX25Y25*%
%IPPOS*%
%LPD*%
%AMOC8*
5,1,8,0,0,1.08239X$1,22.5*
%
%ADD10R,0.07687X0.06899*%
%ADD11C,0.01380*%
%ADD12R,0.01181X0.02953*%
%ADD13R,0.01280X0.02953*%
%ADD14R,0.07087X0.09547*%
%ADD15R,0.02992X0.01378*%
%ADD16R,0.22254X0.04537*%
%ADD17R,0.13986X0.06899*%
%ADD18R,0.05324X0.08474*%
%ADD19C,0.14443*%
%ADD20R,0.08474X0.05324*%
%ADD21C,0.04931*%
%ADD22R,0.06899X0.07687*%
%ADD23R,0.05324X0.05324*%
%ADD24C,0.03181*%
D10*
X0120167Y0027488D03*
X0120167Y0038512D03*
X0157667Y0047488D03*
X0170167Y0047512D03*
X0144667Y0050488D03*
X0133667Y0050488D03*
X0157667Y0058512D03*
X0144667Y0061512D03*
X0133667Y0061512D03*
X0084167Y0061012D03*
X0074667Y0061012D03*
X0074667Y0049988D03*
X0084167Y0049988D03*
X0170167Y0036488D03*
X0186167Y0036512D03*
X0205667Y0036488D03*
X0244667Y0035012D03*
X0258167Y0037488D03*
X0258167Y0048512D03*
X0205667Y0047512D03*
X0186167Y0025488D03*
X0244667Y0023988D03*
D11*
X0112352Y0047063D03*
X0112352Y0049031D03*
X0112352Y0051000D03*
X0112352Y0052969D03*
X0112352Y0054937D03*
X0103031Y0054937D03*
X0103031Y0052969D03*
X0103031Y0051000D03*
X0103031Y0049031D03*
X0103031Y0047063D03*
D12*
X0105304Y0045390D03*
X0110029Y0045390D03*
X0110029Y0056610D03*
X0105304Y0056610D03*
D13*
X0106869Y0056610D03*
X0108464Y0056610D03*
X0108464Y0045390D03*
X0106869Y0045390D03*
D14*
X0107667Y0050951D03*
D15*
X0101535Y0051000D03*
X0101535Y0052969D03*
X0101535Y0054937D03*
X0113848Y0054937D03*
X0113848Y0052969D03*
X0113848Y0051000D03*
X0113848Y0049031D03*
X0113848Y0047063D03*
X0101535Y0047063D03*
X0101535Y0049031D03*
D16*
X0029753Y0047563D03*
X0029753Y0055437D03*
D17*
X0022667Y0064886D03*
X0022667Y0038114D03*
D18*
X0101367Y0074500D03*
X0113966Y0074500D03*
D19*
X0303667Y0058441D03*
X0303667Y0013559D03*
D20*
X0293430Y0022220D03*
X0293430Y0032063D03*
X0293430Y0039937D03*
X0293430Y0049780D03*
D21*
X0303667Y0044858D03*
X0303667Y0027142D03*
D22*
X0119678Y0012000D03*
X0108655Y0012000D03*
D23*
X0271667Y0014866D03*
X0271667Y0023134D03*
D24*
X0095167Y0017500D03*
X0108167Y0029000D03*
X0111167Y0029000D03*
X0112667Y0031500D03*
X0109667Y0031500D03*
X0106667Y0031500D03*
X0092167Y0037000D03*
X0170167Y0030500D03*
X0217167Y0032000D03*
X0283667Y0032000D03*
X0110167Y0064500D03*
X0107167Y0064500D03*
X0103667Y0064500D03*
X0105667Y0062000D03*
X0108667Y0062000D03*
X0087167Y0074000D03*
M02*
