%
M48
M72
T01C0.0118
T02C0.0433
T03C0.0984
%
T01
X9517Y1750
X10817Y2900
X11117Y2900
X11267Y3150
X10967Y3150
X10667Y3150
X9217Y3700
X10570Y4903
X10964Y4903
X10767Y5100
X10964Y5297
X10570Y5297
X10567Y6200
X10867Y6200
X11017Y6450
X10717Y6450
X10367Y6450
X8717Y7400
X21717Y3200
X17017Y3050
X28367Y3200
T02
X30367Y2714
X30367Y4486
T03
X30367Y5844
X30367Y1356
M30
