G75*
%MOIN*%
%OFA0B0*%
%FSLAX25Y25*%
%IPPOS*%
%LPD*%
%AMOC8*
5,1,8,0,0,1.08239X$1,22.5*
%
%ADD10R,0.07087X0.06299*%
%ADD11C,0.02581*%
%ADD12R,0.00984X0.13976*%
%ADD13R,0.06693X0.08465*%
%ADD14C,0.00551*%
%ADD15R,0.21654X0.03937*%
%ADD16R,0.13386X0.06299*%
%ADD17R,0.04724X0.07874*%
%ADD18C,0.13843*%
%ADD19R,0.07874X0.04724*%
%ADD20R,0.06299X0.07087*%
%ADD21R,0.04724X0.04724*%
%ADD22C,0.00600*%
%ADD23C,0.01200*%
D10*
X0120167Y0027488D03*
X0120167Y0038512D03*
X0157667Y0047488D03*
X0170167Y0047512D03*
X0144667Y0050488D03*
X0133667Y0050488D03*
X0157667Y0058512D03*
X0144667Y0061512D03*
X0133667Y0061512D03*
X0084167Y0061012D03*
X0074667Y0061012D03*
X0074667Y0049988D03*
X0084167Y0049988D03*
X0170167Y0036488D03*
X0186167Y0036512D03*
X0205667Y0036488D03*
X0244667Y0035012D03*
X0258167Y0037488D03*
X0258167Y0048512D03*
X0205667Y0047512D03*
X0186167Y0025488D03*
X0244667Y0023988D03*
D11*
X0095167Y0017500D03*
X0108167Y0029000D03*
X0111167Y0029000D03*
X0112667Y0031500D03*
X0109667Y0031500D03*
X0106667Y0031500D03*
X0092167Y0037000D03*
X0105698Y0049031D03*
X0109635Y0049031D03*
X0107667Y0051000D03*
X0109635Y0052969D03*
X0105698Y0052969D03*
X0105667Y0062000D03*
X0108667Y0062000D03*
X0110167Y0064500D03*
X0107167Y0064500D03*
X0103667Y0064500D03*
X0087167Y0074000D03*
X0217167Y0032000D03*
X0170167Y0030500D03*
X0283667Y0032000D03*
D12*
X0110029Y0051000D03*
X0108454Y0051000D03*
X0106879Y0051000D03*
X0105304Y0051000D03*
D13*
X0107667Y0051000D03*
D14*
X0112174Y0051276D02*
X0114970Y0051276D01*
X0114970Y0050724D01*
X0112174Y0050724D01*
X0112174Y0051276D01*
X0112174Y0051274D02*
X0114970Y0051274D01*
X0114970Y0053245D02*
X0112174Y0053245D01*
X0114970Y0053245D02*
X0114970Y0052693D01*
X0112174Y0052693D01*
X0112174Y0053245D01*
X0112174Y0053243D02*
X0114970Y0053243D01*
X0114970Y0055213D02*
X0112174Y0055213D01*
X0114970Y0055213D02*
X0114970Y0054661D01*
X0112174Y0054661D01*
X0112174Y0055213D01*
X0112174Y0055211D02*
X0114970Y0055211D01*
X0103208Y0054661D02*
X0100412Y0054661D01*
X0100412Y0055213D01*
X0103208Y0055213D01*
X0103208Y0054661D01*
X0103208Y0055211D02*
X0100412Y0055211D01*
X0100412Y0052693D02*
X0103208Y0052693D01*
X0100412Y0052693D02*
X0100412Y0053245D01*
X0103208Y0053245D01*
X0103208Y0052693D01*
X0103208Y0053243D02*
X0100412Y0053243D01*
X0100412Y0050724D02*
X0103208Y0050724D01*
X0100412Y0050724D02*
X0100412Y0051276D01*
X0103208Y0051276D01*
X0103208Y0050724D01*
X0103208Y0051274D02*
X0100412Y0051274D01*
X0100412Y0048755D02*
X0103208Y0048755D01*
X0100412Y0048755D02*
X0100412Y0049307D01*
X0103208Y0049307D01*
X0103208Y0048755D01*
X0103208Y0049305D02*
X0100412Y0049305D01*
X0100412Y0046787D02*
X0103208Y0046787D01*
X0100412Y0046787D02*
X0100412Y0047339D01*
X0103208Y0047339D01*
X0103208Y0046787D01*
X0103208Y0047337D02*
X0100412Y0047337D01*
X0112174Y0047339D02*
X0114970Y0047339D01*
X0114970Y0046787D01*
X0112174Y0046787D01*
X0112174Y0047339D01*
X0112174Y0047337D02*
X0114970Y0047337D01*
X0114970Y0049307D02*
X0112174Y0049307D01*
X0114970Y0049307D02*
X0114970Y0048755D01*
X0112174Y0048755D01*
X0112174Y0049307D01*
X0112174Y0049305D02*
X0114970Y0049305D01*
D15*
X0029753Y0047563D03*
X0029753Y0055437D03*
D16*
X0022667Y0064886D03*
X0022667Y0038114D03*
D17*
X0101367Y0074500D03*
X0113966Y0074500D03*
D18*
X0303667Y0058441D03*
X0303667Y0013559D03*
D19*
X0293430Y0022220D03*
X0293430Y0032063D03*
X0293430Y0039937D03*
X0293430Y0049780D03*
D20*
X0119678Y0012000D03*
X0108655Y0012000D03*
D21*
X0271667Y0014866D03*
X0271667Y0023134D03*
D22*
X0271967Y0023145D02*
X0288193Y0023145D01*
X0288193Y0023743D02*
X0275329Y0023743D01*
X0275329Y0023434D02*
X0271967Y0023434D01*
X0271967Y0022834D01*
X0275329Y0022834D01*
X0275329Y0020600D01*
X0275240Y0020270D01*
X0275166Y0020142D01*
X0288193Y0020060D01*
X0288193Y0021920D01*
X0293130Y0021920D01*
X0293130Y0022520D01*
X0288193Y0022520D01*
X0288193Y0024754D01*
X0288282Y0025084D01*
X0288453Y0025381D01*
X0288695Y0025623D01*
X0288992Y0025794D01*
X0289322Y0025883D01*
X0289694Y0025883D01*
X0274714Y0026602D01*
X0274827Y0026536D01*
X0275069Y0026294D01*
X0275240Y0025998D01*
X0275329Y0025667D01*
X0275329Y0023434D01*
X0275329Y0022546D02*
X0288193Y0022546D01*
X0288193Y0024342D02*
X0275329Y0024342D01*
X0275329Y0024940D02*
X0288243Y0024940D01*
X0288611Y0025539D02*
X0275329Y0025539D01*
X0275160Y0026137D02*
X0284386Y0026137D01*
X0293130Y0021948D02*
X0275329Y0021948D01*
X0275329Y0021349D02*
X0288193Y0021349D01*
X0288193Y0020751D02*
X0275329Y0020751D01*
X0275172Y0020152D02*
X0288193Y0020152D01*
X0271367Y0022834D02*
X0268004Y0022834D01*
X0268004Y0020600D01*
X0268093Y0020270D01*
X0268141Y0020186D01*
X0249403Y0020305D01*
X0249421Y0020337D01*
X0249510Y0020667D01*
X0249510Y0023688D01*
X0244967Y0023688D01*
X0244967Y0024288D01*
X0249510Y0024288D01*
X0249510Y0027309D01*
X0249421Y0027640D01*
X0249317Y0027821D01*
X0270666Y0026796D01*
X0269133Y0026796D01*
X0268803Y0026707D01*
X0268506Y0026536D01*
X0268264Y0026294D01*
X0268093Y0025998D01*
X0268004Y0025667D01*
X0268004Y0023434D01*
X0271367Y0023434D01*
X0271367Y0022834D01*
X0271367Y0023145D02*
X0249510Y0023145D01*
X0249510Y0022546D02*
X0268004Y0022546D01*
X0268004Y0021948D02*
X0249510Y0021948D01*
X0249510Y0021349D02*
X0268004Y0021349D01*
X0268004Y0020751D02*
X0249510Y0020751D01*
X0239905Y0020364D02*
X0139167Y0021000D01*
X0105167Y0021000D01*
X0104167Y0021500D01*
X0104583Y0042727D01*
X0104641Y0042712D01*
X0105304Y0042712D01*
X0105304Y0043287D01*
X0105305Y0043287D01*
X0105305Y0042712D01*
X0105968Y0042712D01*
X0106092Y0042745D01*
X0106216Y0042712D01*
X0106879Y0042712D01*
X0106879Y0043287D01*
X0106879Y0043287D01*
X0106879Y0043287D01*
X0106879Y0042712D01*
X0107543Y0042712D01*
X0107667Y0042745D01*
X0107791Y0042712D01*
X0108454Y0042712D01*
X0108454Y0043287D01*
X0108454Y0043287D01*
X0108454Y0043287D01*
X0108454Y0042712D01*
X0109117Y0042712D01*
X0109241Y0042745D01*
X0109366Y0042712D01*
X0110029Y0042712D01*
X0110167Y0042712D01*
X0110167Y0034500D01*
X0168279Y0031711D01*
X0167976Y0031407D01*
X0167976Y0029593D01*
X0169259Y0028309D01*
X0171074Y0028309D01*
X0172357Y0029593D01*
X0172357Y0031407D01*
X0172244Y0031520D01*
X0240444Y0028247D01*
X0240325Y0028178D01*
X0240083Y0027936D01*
X0239912Y0027640D01*
X0239823Y0027309D01*
X0239823Y0024288D01*
X0244367Y0024288D01*
X0244367Y0023688D01*
X0239823Y0023688D01*
X0239823Y0020667D01*
X0239905Y0020364D01*
X0239823Y0020751D02*
X0178653Y0020751D01*
X0181412Y0021837D02*
X0181583Y0021540D01*
X0181825Y0021298D01*
X0182122Y0021127D01*
X0182452Y0021039D01*
X0185867Y0021039D01*
X0185867Y0025188D01*
X0186467Y0025188D01*
X0186467Y0025788D01*
X0191010Y0025788D01*
X0191010Y0028809D01*
X0190921Y0029140D01*
X0190750Y0029436D01*
X0190508Y0029678D01*
X0190212Y0029849D01*
X0189881Y0029938D01*
X0186467Y0029938D01*
X0186467Y0025788D01*
X0185867Y0025788D01*
X0185867Y0029938D01*
X0182452Y0029938D01*
X0182122Y0029849D01*
X0181825Y0029678D01*
X0181583Y0029436D01*
X0181412Y0029140D01*
X0181323Y0028809D01*
X0181323Y0025788D01*
X0185867Y0025788D01*
X0185867Y0025188D01*
X0181323Y0025188D01*
X0181323Y0022167D01*
X0181412Y0021837D01*
X0181382Y0021948D02*
X0104175Y0021948D01*
X0104187Y0022546D02*
X0181323Y0022546D01*
X0181323Y0023145D02*
X0124242Y0023145D01*
X0124212Y0023127D02*
X0124508Y0023298D01*
X0124750Y0023540D01*
X0124921Y0023837D01*
X0125010Y0024167D01*
X0125010Y0027188D01*
X0120467Y0027188D01*
X0120467Y0027788D01*
X0125010Y0027788D01*
X0125010Y0030809D01*
X0124921Y0031140D01*
X0124750Y0031436D01*
X0124508Y0031678D01*
X0124212Y0031849D01*
X0123881Y0031938D01*
X0120467Y0031938D01*
X0120467Y0027788D01*
X0119867Y0027788D01*
X0119867Y0031938D01*
X0116452Y0031938D01*
X0116122Y0031849D01*
X0115825Y0031678D01*
X0115583Y0031436D01*
X0115412Y0031140D01*
X0115323Y0030809D01*
X0115323Y0027788D01*
X0119867Y0027788D01*
X0119867Y0027188D01*
X0120467Y0027188D01*
X0120467Y0023039D01*
X0123881Y0023039D01*
X0124212Y0023127D01*
X0124867Y0023743D02*
X0181323Y0023743D01*
X0181323Y0024342D02*
X0125010Y0024342D01*
X0125010Y0024940D02*
X0181323Y0024940D01*
X0181323Y0026137D02*
X0125010Y0026137D01*
X0125010Y0025539D02*
X0185867Y0025539D01*
X0185867Y0026137D02*
X0186467Y0026137D01*
X0186467Y0025539D02*
X0239823Y0025539D01*
X0239823Y0026137D02*
X0191010Y0026137D01*
X0191010Y0026736D02*
X0239823Y0026736D01*
X0239830Y0027334D02*
X0191010Y0027334D01*
X0191010Y0027933D02*
X0240081Y0027933D01*
X0234510Y0028532D02*
X0191010Y0028532D01*
X0190924Y0029130D02*
X0222041Y0029130D01*
X0209572Y0029729D02*
X0190421Y0029729D01*
X0186467Y0029729D02*
X0185867Y0029729D01*
X0185867Y0029130D02*
X0186467Y0029130D01*
X0186467Y0028532D02*
X0185867Y0028532D01*
X0185867Y0027933D02*
X0186467Y0027933D01*
X0186467Y0027334D02*
X0185867Y0027334D01*
X0185867Y0026736D02*
X0186467Y0026736D01*
X0186467Y0025188D02*
X0191010Y0025188D01*
X0191010Y0022167D01*
X0190921Y0021837D01*
X0190750Y0021540D01*
X0190508Y0021298D01*
X0190212Y0021127D01*
X0189881Y0021039D01*
X0186467Y0021039D01*
X0186467Y0025188D01*
X0186467Y0024940D02*
X0185867Y0024940D01*
X0185867Y0024342D02*
X0186467Y0024342D01*
X0186467Y0023743D02*
X0185867Y0023743D01*
X0185867Y0023145D02*
X0186467Y0023145D01*
X0186467Y0022546D02*
X0185867Y0022546D01*
X0185867Y0021948D02*
X0186467Y0021948D01*
X0186467Y0021349D02*
X0185867Y0021349D01*
X0181774Y0021349D02*
X0104468Y0021349D01*
X0104199Y0023145D02*
X0116091Y0023145D01*
X0116122Y0023127D02*
X0116452Y0023039D01*
X0119867Y0023039D01*
X0119867Y0027188D01*
X0115323Y0027188D01*
X0115323Y0024167D01*
X0115412Y0023837D01*
X0115583Y0023540D01*
X0115825Y0023298D01*
X0116122Y0023127D01*
X0115466Y0023743D02*
X0104211Y0023743D01*
X0104222Y0024342D02*
X0115323Y0024342D01*
X0115323Y0024940D02*
X0104234Y0024940D01*
X0104246Y0025539D02*
X0115323Y0025539D01*
X0115323Y0026137D02*
X0104258Y0026137D01*
X0104269Y0026736D02*
X0115323Y0026736D01*
X0115323Y0027933D02*
X0104293Y0027933D01*
X0104281Y0027334D02*
X0119867Y0027334D01*
X0119867Y0026736D02*
X0120467Y0026736D01*
X0120467Y0027334D02*
X0181323Y0027334D01*
X0181323Y0026736D02*
X0125010Y0026736D01*
X0125010Y0027933D02*
X0181323Y0027933D01*
X0181323Y0028532D02*
X0171296Y0028532D01*
X0171895Y0029130D02*
X0181409Y0029130D01*
X0181913Y0029729D02*
X0172357Y0029729D01*
X0172357Y0030327D02*
X0197103Y0030327D01*
X0184634Y0030926D02*
X0172357Y0030926D01*
X0168093Y0031524D02*
X0124662Y0031524D01*
X0124979Y0030926D02*
X0167976Y0030926D01*
X0167976Y0030327D02*
X0125010Y0030327D01*
X0125010Y0029729D02*
X0167976Y0029729D01*
X0168439Y0029130D02*
X0125010Y0029130D01*
X0125010Y0028532D02*
X0169037Y0028532D01*
X0159696Y0032123D02*
X0104375Y0032123D01*
X0104387Y0032721D02*
X0147227Y0032721D01*
X0150667Y0032721D02*
X0135667Y0032721D01*
X0135667Y0032123D02*
X0150667Y0032123D01*
X0150667Y0032000D02*
X0135667Y0032000D01*
X0135667Y0038000D01*
X0129667Y0041000D01*
X0116485Y0048323D01*
X0116545Y0048548D01*
X0116545Y0049031D01*
X0113572Y0049031D01*
X0113572Y0049032D01*
X0113572Y0049031D02*
X0109635Y0049031D01*
X0107667Y0051000D01*
X0105698Y0052969D01*
X0105667Y0053000D01*
X0105667Y0062000D01*
X0104174Y0060851D02*
X0110635Y0060851D01*
X0110167Y0060500D02*
X0110167Y0059288D01*
X0110029Y0059288D01*
X0110029Y0058713D01*
X0110029Y0059288D01*
X0109366Y0059288D01*
X0109241Y0059255D01*
X0109117Y0059288D01*
X0108454Y0059288D01*
X0107791Y0059288D01*
X0107667Y0059255D01*
X0107543Y0059288D01*
X0106879Y0059288D01*
X0106216Y0059288D01*
X0106092Y0059255D01*
X0105968Y0059288D01*
X0105305Y0059288D01*
X0105305Y0058713D01*
X0105304Y0058713D01*
X0105304Y0059288D01*
X0105167Y0059288D01*
X0105167Y0060000D01*
X0101667Y0063000D01*
X0101667Y0066500D01*
X0112167Y0066500D01*
X0112167Y0062000D01*
X0110167Y0060500D01*
X0110167Y0060253D02*
X0104872Y0060253D01*
X0105167Y0059654D02*
X0110167Y0059654D01*
X0110029Y0059056D02*
X0110029Y0059056D01*
X0110029Y0058713D02*
X0110029Y0058713D01*
X0108454Y0058713D02*
X0108454Y0059288D01*
X0108454Y0058713D01*
X0108454Y0058713D01*
X0108454Y0058713D01*
X0108454Y0059056D02*
X0108454Y0059056D01*
X0106879Y0059056D02*
X0106879Y0059056D01*
X0106879Y0059288D02*
X0106879Y0058713D01*
X0106879Y0058713D01*
X0106879Y0058713D01*
X0106879Y0059288D01*
X0105304Y0059056D02*
X0105305Y0059056D01*
X0103167Y0058500D02*
X0103167Y0056788D01*
X0101810Y0056788D01*
X0100205Y0056788D01*
X0100167Y0056778D01*
X0100167Y0057500D01*
X0090167Y0067500D01*
X0090167Y0080500D01*
X0103167Y0080500D01*
X0103167Y0079737D01*
X0101667Y0079737D01*
X0101667Y0074800D01*
X0101067Y0074800D01*
X0101067Y0074200D01*
X0097705Y0074200D01*
X0097705Y0070392D01*
X0097794Y0070061D01*
X0097965Y0069765D01*
X0098207Y0069523D01*
X0098503Y0069352D01*
X0098834Y0069263D01*
X0101067Y0069263D01*
X0101067Y0074200D01*
X0101667Y0074200D01*
X0101667Y0069263D01*
X0103167Y0069263D01*
X0103167Y0068500D01*
X0099167Y0068500D01*
X0098667Y0064000D01*
X0098667Y0063000D01*
X0103167Y0058500D01*
X0103167Y0058457D02*
X0099210Y0058457D01*
X0099808Y0057859D02*
X0103167Y0057859D01*
X0103167Y0057260D02*
X0100167Y0057260D01*
X0101810Y0056788D02*
X0101810Y0055000D01*
X0101810Y0055000D01*
X0101810Y0056788D01*
X0101810Y0056662D02*
X0101810Y0056662D01*
X0101810Y0056063D02*
X0101810Y0056063D01*
X0101810Y0055465D02*
X0101810Y0055465D01*
X0104584Y0054083D02*
X0107667Y0051000D01*
X0108667Y0052000D01*
X0109635Y0052969D02*
X0110167Y0053500D01*
X0113572Y0052969D02*
X0116545Y0052969D01*
X0116545Y0053452D01*
X0116532Y0053500D01*
X0128823Y0053500D01*
X0128823Y0050788D01*
X0133367Y0050788D01*
X0133367Y0050188D01*
X0133967Y0050188D01*
X0133967Y0050788D01*
X0138510Y0050788D01*
X0138510Y0053500D01*
X0139823Y0053500D01*
X0139823Y0050788D01*
X0144367Y0050788D01*
X0144367Y0050188D01*
X0144967Y0050188D01*
X0144967Y0050788D01*
X0149510Y0050788D01*
X0149510Y0053500D01*
X0149667Y0053500D01*
X0151167Y0052000D01*
X0253519Y0052349D01*
X0253412Y0052163D01*
X0253323Y0051833D01*
X0253323Y0048812D01*
X0257867Y0048812D01*
X0257867Y0048212D01*
X0253323Y0048212D01*
X0253323Y0045191D01*
X0253412Y0044860D01*
X0253501Y0044706D01*
X0210121Y0043435D01*
X0210250Y0043564D01*
X0210421Y0043860D01*
X0210510Y0044191D01*
X0210510Y0047212D01*
X0205967Y0047212D01*
X0205967Y0047812D01*
X0210510Y0047812D01*
X0210510Y0050833D01*
X0210421Y0051163D01*
X0210250Y0051460D01*
X0210008Y0051702D01*
X0209712Y0051873D01*
X0209381Y0051961D01*
X0205967Y0051961D01*
X0205967Y0047812D01*
X0205367Y0047812D01*
X0205367Y0051961D01*
X0201952Y0051961D01*
X0201622Y0051873D01*
X0201325Y0051702D01*
X0201083Y0051460D01*
X0200912Y0051163D01*
X0200823Y0050833D01*
X0200823Y0047812D01*
X0205367Y0047812D01*
X0205367Y0047212D01*
X0200823Y0047212D01*
X0200823Y0044191D01*
X0200912Y0043860D01*
X0201083Y0043564D01*
X0201325Y0043322D01*
X0201564Y0043184D01*
X0161167Y0042000D01*
X0133667Y0044000D01*
X0129704Y0046105D01*
X0129952Y0046039D01*
X0133367Y0046039D01*
X0133367Y0050188D01*
X0128823Y0050188D01*
X0128823Y0047167D01*
X0128912Y0046837D01*
X0129083Y0046540D01*
X0129308Y0046316D01*
X0117667Y0052500D01*
X0116545Y0052500D01*
X0116545Y0052968D01*
X0113572Y0052968D01*
X0113572Y0052969D01*
X0116545Y0053070D02*
X0128823Y0053070D01*
X0128823Y0052472D02*
X0117719Y0052472D01*
X0118846Y0051873D02*
X0128823Y0051873D01*
X0128823Y0051275D02*
X0119973Y0051275D01*
X0121099Y0050676D02*
X0133367Y0050676D01*
X0133367Y0050078D02*
X0133967Y0050078D01*
X0133967Y0050188D02*
X0133967Y0046039D01*
X0137381Y0046039D01*
X0137712Y0046127D01*
X0138008Y0046298D01*
X0138250Y0046540D01*
X0138421Y0046837D01*
X0138510Y0047167D01*
X0138510Y0050188D01*
X0133967Y0050188D01*
X0133967Y0050676D02*
X0144367Y0050676D01*
X0144367Y0050188D02*
X0139823Y0050188D01*
X0139823Y0047167D01*
X0139912Y0046837D01*
X0140083Y0046540D01*
X0140325Y0046298D01*
X0140622Y0046127D01*
X0140952Y0046039D01*
X0144367Y0046039D01*
X0144367Y0050188D01*
X0144367Y0050078D02*
X0144967Y0050078D01*
X0144967Y0050188D02*
X0144967Y0046039D01*
X0148381Y0046039D01*
X0148712Y0046127D01*
X0149008Y0046298D01*
X0149250Y0046540D01*
X0149421Y0046837D01*
X0149510Y0047167D01*
X0149510Y0050188D01*
X0144967Y0050188D01*
X0144967Y0050676D02*
X0152823Y0050676D01*
X0152823Y0050809D02*
X0152823Y0047788D01*
X0157367Y0047788D01*
X0157367Y0051938D01*
X0153952Y0051938D01*
X0153622Y0051849D01*
X0153325Y0051678D01*
X0153083Y0051436D01*
X0152912Y0051140D01*
X0152823Y0050809D01*
X0152990Y0051275D02*
X0149510Y0051275D01*
X0149510Y0051873D02*
X0153712Y0051873D01*
X0152823Y0050078D02*
X0149510Y0050078D01*
X0149510Y0049479D02*
X0152823Y0049479D01*
X0152823Y0048881D02*
X0149510Y0048881D01*
X0149510Y0048282D02*
X0152823Y0048282D01*
X0152823Y0047188D02*
X0152823Y0044167D01*
X0152912Y0043837D01*
X0153083Y0043540D01*
X0153325Y0043298D01*
X0153622Y0043127D01*
X0153952Y0043039D01*
X0157367Y0043039D01*
X0157367Y0047188D01*
X0157967Y0047188D01*
X0157967Y0047788D01*
X0162510Y0047788D01*
X0162510Y0050809D01*
X0162421Y0051140D01*
X0162250Y0051436D01*
X0162008Y0051678D01*
X0161712Y0051849D01*
X0161381Y0051938D01*
X0157967Y0051938D01*
X0157967Y0047788D01*
X0157367Y0047788D01*
X0157367Y0047188D01*
X0152823Y0047188D01*
X0152823Y0047085D02*
X0149488Y0047085D01*
X0149510Y0047684D02*
X0157367Y0047684D01*
X0157367Y0048282D02*
X0157967Y0048282D01*
X0157967Y0047684D02*
X0169867Y0047684D01*
X0169867Y0047812D02*
X0169867Y0047212D01*
X0170467Y0047212D01*
X0170467Y0047812D01*
X0175010Y0047812D01*
X0175010Y0050833D01*
X0174921Y0051163D01*
X0174750Y0051460D01*
X0174508Y0051702D01*
X0174212Y0051873D01*
X0173881Y0051961D01*
X0170467Y0051961D01*
X0170467Y0047812D01*
X0169867Y0047812D01*
X0169867Y0051961D01*
X0166452Y0051961D01*
X0166122Y0051873D01*
X0165825Y0051702D01*
X0165583Y0051460D01*
X0165412Y0051163D01*
X0165323Y0050833D01*
X0165323Y0047812D01*
X0169867Y0047812D01*
X0169867Y0048282D02*
X0170467Y0048282D01*
X0170467Y0047684D02*
X0205367Y0047684D01*
X0205367Y0048282D02*
X0205967Y0048282D01*
X0205967Y0047684D02*
X0253323Y0047684D01*
X0253323Y0047085D02*
X0210510Y0047085D01*
X0210510Y0046487D02*
X0253323Y0046487D01*
X0253323Y0045888D02*
X0210510Y0045888D01*
X0210510Y0045290D02*
X0253323Y0045290D01*
X0253008Y0044691D02*
X0210510Y0044691D01*
X0210484Y0044093D02*
X0232584Y0044093D01*
X0212160Y0043494D02*
X0210181Y0043494D01*
X0201153Y0043494D02*
X0174681Y0043494D01*
X0174750Y0043564D02*
X0174921Y0043860D01*
X0175010Y0044191D01*
X0175010Y0047212D01*
X0170467Y0047212D01*
X0170467Y0043062D01*
X0173881Y0043062D01*
X0174212Y0043151D01*
X0174508Y0043322D01*
X0174750Y0043564D01*
X0174984Y0044093D02*
X0200850Y0044093D01*
X0200823Y0044691D02*
X0175010Y0044691D01*
X0175010Y0045290D02*
X0200823Y0045290D01*
X0200823Y0045888D02*
X0175010Y0045888D01*
X0175010Y0046487D02*
X0200823Y0046487D01*
X0200823Y0047085D02*
X0175010Y0047085D01*
X0175010Y0048282D02*
X0200823Y0048282D01*
X0200823Y0048881D02*
X0175010Y0048881D01*
X0175010Y0049479D02*
X0200823Y0049479D01*
X0200823Y0050078D02*
X0175010Y0050078D01*
X0175010Y0050676D02*
X0200823Y0050676D01*
X0200976Y0051275D02*
X0174857Y0051275D01*
X0174209Y0051873D02*
X0201624Y0051873D01*
X0205367Y0051873D02*
X0205967Y0051873D01*
X0205967Y0051275D02*
X0205367Y0051275D01*
X0205367Y0050676D02*
X0205967Y0050676D01*
X0205967Y0050078D02*
X0205367Y0050078D01*
X0205367Y0049479D02*
X0205967Y0049479D01*
X0205967Y0048881D02*
X0205367Y0048881D01*
X0210510Y0048881D02*
X0253323Y0048881D01*
X0253323Y0049479D02*
X0210510Y0049479D01*
X0210510Y0050078D02*
X0253323Y0050078D01*
X0253323Y0050676D02*
X0210510Y0050676D01*
X0210357Y0051275D02*
X0253323Y0051275D01*
X0253334Y0051873D02*
X0209709Y0051873D01*
X0210510Y0048282D02*
X0257867Y0048282D01*
X0258467Y0048282D02*
X0288193Y0048282D01*
X0288193Y0047684D02*
X0263010Y0047684D01*
X0263010Y0048212D02*
X0258467Y0048212D01*
X0258467Y0048812D01*
X0263010Y0048812D01*
X0263010Y0051833D01*
X0262921Y0052163D01*
X0262796Y0052381D01*
X0288235Y0052468D01*
X0288193Y0052313D01*
X0288193Y0050079D01*
X0293130Y0050079D01*
X0293130Y0049480D01*
X0288193Y0049480D01*
X0288193Y0047246D01*
X0288282Y0046916D01*
X0288453Y0046619D01*
X0288695Y0046377D01*
X0288992Y0046206D01*
X0289322Y0046117D01*
X0293130Y0046117D01*
X0293130Y0049479D01*
X0293730Y0049479D01*
X0293730Y0046117D01*
X0297539Y0046117D01*
X0297667Y0046152D01*
X0297667Y0046000D01*
X0262954Y0044983D01*
X0263010Y0045191D01*
X0263010Y0048212D01*
X0263010Y0048881D02*
X0288193Y0048881D01*
X0288193Y0049479D02*
X0263010Y0049479D01*
X0263010Y0050078D02*
X0293130Y0050078D01*
X0293130Y0049479D02*
X0293730Y0049479D01*
X0293730Y0048881D02*
X0293130Y0048881D01*
X0293130Y0048282D02*
X0293730Y0048282D01*
X0293730Y0047684D02*
X0293130Y0047684D01*
X0293130Y0047085D02*
X0293730Y0047085D01*
X0293730Y0046487D02*
X0293130Y0046487D01*
X0293857Y0045888D02*
X0263010Y0045888D01*
X0263010Y0045290D02*
X0273433Y0045290D01*
X0263010Y0046487D02*
X0288585Y0046487D01*
X0288237Y0047085D02*
X0263010Y0047085D01*
X0263010Y0050676D02*
X0288193Y0050676D01*
X0288193Y0051275D02*
X0263010Y0051275D01*
X0262999Y0051873D02*
X0288193Y0051873D01*
X0268909Y0026736D02*
X0249510Y0026736D01*
X0249510Y0026137D02*
X0268174Y0026137D01*
X0268004Y0025539D02*
X0249510Y0025539D01*
X0249510Y0024940D02*
X0268004Y0024940D01*
X0268004Y0024342D02*
X0249510Y0024342D01*
X0244967Y0023743D02*
X0268004Y0023743D01*
X0259448Y0027334D02*
X0249503Y0027334D01*
X0239823Y0024940D02*
X0191010Y0024940D01*
X0191010Y0024342D02*
X0239823Y0024342D01*
X0239823Y0023145D02*
X0191010Y0023145D01*
X0191010Y0023743D02*
X0244367Y0023743D01*
X0239823Y0022546D02*
X0191010Y0022546D01*
X0190951Y0021948D02*
X0239823Y0021948D01*
X0239823Y0021349D02*
X0190559Y0021349D01*
X0150667Y0032000D02*
X0150667Y0040000D01*
X0135667Y0040500D01*
X0119167Y0049500D01*
X0116545Y0049500D01*
X0116545Y0049032D01*
X0113572Y0049032D01*
X0116545Y0048881D02*
X0120302Y0048881D01*
X0121399Y0048282D02*
X0116558Y0048282D01*
X0116545Y0049479D02*
X0119204Y0049479D01*
X0122226Y0050078D02*
X0128823Y0050078D01*
X0128823Y0049479D02*
X0123352Y0049479D01*
X0124479Y0048881D02*
X0128823Y0048881D01*
X0128823Y0048282D02*
X0125606Y0048282D01*
X0126732Y0047684D02*
X0128823Y0047684D01*
X0128845Y0047085D02*
X0127859Y0047085D01*
X0128985Y0046487D02*
X0129137Y0046487D01*
X0130112Y0045888D02*
X0152823Y0045888D01*
X0152823Y0045290D02*
X0131239Y0045290D01*
X0132365Y0044691D02*
X0152823Y0044691D01*
X0152843Y0044093D02*
X0133492Y0044093D01*
X0131274Y0042896D02*
X0126254Y0042896D01*
X0125177Y0043494D02*
X0130177Y0043494D01*
X0129080Y0044093D02*
X0124100Y0044093D01*
X0123022Y0044691D02*
X0127983Y0044691D01*
X0126885Y0045290D02*
X0121945Y0045290D01*
X0120868Y0045888D02*
X0125788Y0045888D01*
X0124691Y0046487D02*
X0119790Y0046487D01*
X0118713Y0047085D02*
X0123593Y0047085D01*
X0122496Y0047684D02*
X0117636Y0047684D01*
X0107167Y0050500D02*
X0105698Y0049031D01*
X0101810Y0049031D01*
X0101810Y0051000D02*
X0101810Y0052969D01*
X0101810Y0052968D01*
X0098837Y0052968D01*
X0098837Y0052500D01*
X0095667Y0052500D01*
X0072167Y0029000D01*
X0032667Y0029000D01*
X0032667Y0044294D01*
X0040751Y0044294D01*
X0041082Y0044383D01*
X0041378Y0044554D01*
X0041620Y0044796D01*
X0041791Y0045093D01*
X0041880Y0045423D01*
X0041880Y0047263D01*
X0030053Y0047263D01*
X0030053Y0047863D01*
X0041880Y0047863D01*
X0041880Y0049500D01*
X0067167Y0049500D01*
X0069823Y0052157D01*
X0069823Y0050288D01*
X0074367Y0050288D01*
X0074367Y0049688D01*
X0074967Y0049688D01*
X0074967Y0050288D01*
X0079510Y0050288D01*
X0083867Y0050288D01*
X0083867Y0049688D01*
X0084467Y0049688D01*
X0084467Y0050288D01*
X0089010Y0050288D01*
X0089010Y0053309D01*
X0088959Y0053500D01*
X0098850Y0053500D01*
X0098837Y0053452D01*
X0098837Y0052969D01*
X0101810Y0052969D01*
X0098837Y0053070D02*
X0089010Y0053070D01*
X0089010Y0052472D02*
X0095639Y0052472D01*
X0095040Y0051873D02*
X0089010Y0051873D01*
X0089010Y0051275D02*
X0094442Y0051275D01*
X0093843Y0050676D02*
X0089010Y0050676D01*
X0089010Y0049688D02*
X0084467Y0049688D01*
X0084467Y0045539D01*
X0087881Y0045539D01*
X0088212Y0045627D01*
X0088508Y0045798D01*
X0088750Y0046040D01*
X0088921Y0046337D01*
X0089010Y0046667D01*
X0089010Y0049688D01*
X0089010Y0049479D02*
X0092646Y0049479D01*
X0092048Y0048881D02*
X0089010Y0048881D01*
X0089010Y0048282D02*
X0091449Y0048282D01*
X0090851Y0047684D02*
X0089010Y0047684D01*
X0089010Y0047085D02*
X0090252Y0047085D01*
X0089654Y0046487D02*
X0088962Y0046487D01*
X0089055Y0045888D02*
X0088598Y0045888D01*
X0088456Y0045290D02*
X0041844Y0045290D01*
X0041880Y0045888D02*
X0070235Y0045888D01*
X0070325Y0045798D02*
X0070622Y0045627D01*
X0070952Y0045539D01*
X0074367Y0045539D01*
X0074367Y0049688D01*
X0069823Y0049688D01*
X0069823Y0046667D01*
X0069912Y0046337D01*
X0070083Y0046040D01*
X0070325Y0045798D01*
X0069872Y0046487D02*
X0041880Y0046487D01*
X0041880Y0047085D02*
X0069823Y0047085D01*
X0069823Y0047684D02*
X0030053Y0047684D01*
X0032667Y0044093D02*
X0087259Y0044093D01*
X0086661Y0043494D02*
X0032667Y0043494D01*
X0032667Y0042896D02*
X0086062Y0042896D01*
X0085464Y0042297D02*
X0032667Y0042297D01*
X0032667Y0041699D02*
X0084865Y0041699D01*
X0084267Y0041100D02*
X0032667Y0041100D01*
X0032667Y0040502D02*
X0083668Y0040502D01*
X0083070Y0039903D02*
X0032667Y0039903D01*
X0032667Y0039305D02*
X0082471Y0039305D01*
X0081873Y0038706D02*
X0032667Y0038706D01*
X0032667Y0038108D02*
X0081274Y0038108D01*
X0080676Y0037509D02*
X0032667Y0037509D01*
X0032667Y0036911D02*
X0080077Y0036911D01*
X0079479Y0036312D02*
X0032667Y0036312D01*
X0032667Y0035714D02*
X0078880Y0035714D01*
X0078282Y0035115D02*
X0032667Y0035115D01*
X0032667Y0034517D02*
X0077683Y0034517D01*
X0077085Y0033918D02*
X0032667Y0033918D01*
X0032667Y0033320D02*
X0076486Y0033320D01*
X0075888Y0032721D02*
X0032667Y0032721D01*
X0032667Y0032123D02*
X0075289Y0032123D01*
X0074691Y0031524D02*
X0032667Y0031524D01*
X0032667Y0030926D02*
X0074092Y0030926D01*
X0073494Y0030327D02*
X0032667Y0030327D01*
X0032667Y0029729D02*
X0072895Y0029729D01*
X0072297Y0029130D02*
X0032667Y0029130D01*
X0041515Y0044691D02*
X0087858Y0044691D01*
X0084467Y0045888D02*
X0083867Y0045888D01*
X0083867Y0045539D02*
X0083867Y0049688D01*
X0074967Y0049688D01*
X0074967Y0045539D01*
X0078381Y0045539D01*
X0078712Y0045627D01*
X0079008Y0045798D01*
X0079250Y0046040D01*
X0079417Y0046329D01*
X0079583Y0046040D01*
X0079825Y0045798D01*
X0080122Y0045627D01*
X0080452Y0045539D01*
X0083867Y0045539D01*
X0083867Y0046487D02*
X0084467Y0046487D01*
X0084467Y0047085D02*
X0083867Y0047085D01*
X0083867Y0047684D02*
X0084467Y0047684D01*
X0084467Y0048282D02*
X0083867Y0048282D01*
X0083867Y0048881D02*
X0084467Y0048881D01*
X0084467Y0049479D02*
X0083867Y0049479D01*
X0083867Y0050078D02*
X0074967Y0050078D01*
X0074967Y0049479D02*
X0074367Y0049479D01*
X0074367Y0048881D02*
X0074967Y0048881D01*
X0074967Y0048282D02*
X0074367Y0048282D01*
X0074367Y0047684D02*
X0074967Y0047684D01*
X0074967Y0047085D02*
X0074367Y0047085D01*
X0074367Y0046487D02*
X0074967Y0046487D01*
X0074967Y0045888D02*
X0074367Y0045888D01*
X0079098Y0045888D02*
X0079735Y0045888D01*
X0069823Y0048282D02*
X0041880Y0048282D01*
X0041880Y0048881D02*
X0069823Y0048881D01*
X0069823Y0049479D02*
X0041880Y0049479D01*
X0041880Y0053500D02*
X0041880Y0055137D01*
X0030053Y0055137D01*
X0030053Y0055737D01*
X0041880Y0055737D01*
X0041880Y0057577D01*
X0041791Y0057907D01*
X0041620Y0058204D01*
X0041378Y0058446D01*
X0041082Y0058617D01*
X0040751Y0058705D01*
X0032667Y0058705D01*
X0032667Y0074000D01*
X0033167Y0074500D01*
X0078667Y0074500D01*
X0087705Y0065461D01*
X0084467Y0065461D01*
X0084467Y0061312D01*
X0089010Y0061312D01*
X0089010Y0064157D01*
X0096667Y0056500D01*
X0071167Y0056500D01*
X0071104Y0056562D01*
X0074367Y0056562D01*
X0074367Y0060712D01*
X0074967Y0060712D01*
X0074967Y0061312D01*
X0079510Y0061312D01*
X0083867Y0061312D01*
X0083867Y0065461D01*
X0080452Y0065461D01*
X0080122Y0065373D01*
X0079825Y0065202D01*
X0079583Y0064960D01*
X0079417Y0064671D01*
X0079250Y0064960D01*
X0079008Y0065202D01*
X0078712Y0065373D01*
X0078381Y0065461D01*
X0074967Y0065461D01*
X0074967Y0061312D01*
X0074367Y0061312D01*
X0074367Y0065461D01*
X0070952Y0065461D01*
X0070622Y0065373D01*
X0070325Y0065202D01*
X0070083Y0064960D01*
X0069912Y0064663D01*
X0069823Y0064333D01*
X0069823Y0061312D01*
X0074367Y0061312D01*
X0074367Y0060712D01*
X0069823Y0060712D01*
X0069823Y0057843D01*
X0069167Y0058500D01*
X0043167Y0058000D01*
X0043167Y0053500D01*
X0041880Y0053500D01*
X0041880Y0053669D02*
X0043167Y0053669D01*
X0043167Y0054268D02*
X0041880Y0054268D01*
X0041880Y0054866D02*
X0043167Y0054866D01*
X0043167Y0055465D02*
X0030053Y0055465D01*
X0032667Y0059056D02*
X0069823Y0059056D01*
X0069823Y0059654D02*
X0032667Y0059654D01*
X0032667Y0060253D02*
X0069823Y0060253D01*
X0069823Y0061450D02*
X0032667Y0061450D01*
X0032667Y0062048D02*
X0069823Y0062048D01*
X0069823Y0062647D02*
X0032667Y0062647D01*
X0032667Y0063245D02*
X0069823Y0063245D01*
X0069823Y0063844D02*
X0032667Y0063844D01*
X0032667Y0064442D02*
X0069853Y0064442D01*
X0070164Y0065041D02*
X0032667Y0065041D01*
X0032667Y0065639D02*
X0087527Y0065639D01*
X0086929Y0066238D02*
X0032667Y0066238D01*
X0032667Y0066836D02*
X0086330Y0066836D01*
X0085732Y0067435D02*
X0032667Y0067435D01*
X0032667Y0068033D02*
X0085133Y0068033D01*
X0084535Y0068632D02*
X0032667Y0068632D01*
X0032667Y0069230D02*
X0083936Y0069230D01*
X0083338Y0069829D02*
X0032667Y0069829D01*
X0032667Y0070427D02*
X0082739Y0070427D01*
X0082141Y0071026D02*
X0032667Y0071026D01*
X0032667Y0071624D02*
X0081542Y0071624D01*
X0080944Y0072223D02*
X0032667Y0072223D01*
X0032667Y0072821D02*
X0080345Y0072821D01*
X0079747Y0073420D02*
X0032667Y0073420D01*
X0032685Y0074018D02*
X0079148Y0074018D01*
X0084167Y0076500D02*
X0086667Y0076500D01*
X0087167Y0076000D01*
X0087167Y0074000D01*
X0090167Y0074018D02*
X0097705Y0074018D01*
X0097705Y0073420D02*
X0090167Y0073420D01*
X0090167Y0072821D02*
X0097705Y0072821D01*
X0097705Y0072223D02*
X0090167Y0072223D01*
X0090167Y0071624D02*
X0097705Y0071624D01*
X0097705Y0071026D02*
X0090167Y0071026D01*
X0090167Y0070427D02*
X0097705Y0070427D01*
X0097928Y0069829D02*
X0090167Y0069829D01*
X0090167Y0069230D02*
X0103167Y0069230D01*
X0103167Y0068632D02*
X0090167Y0068632D01*
X0090167Y0068033D02*
X0099115Y0068033D01*
X0099048Y0067435D02*
X0090232Y0067435D01*
X0090830Y0066836D02*
X0098982Y0066836D01*
X0098915Y0066238D02*
X0091429Y0066238D01*
X0092027Y0065639D02*
X0098849Y0065639D01*
X0098782Y0065041D02*
X0092626Y0065041D01*
X0093224Y0064442D02*
X0098716Y0064442D01*
X0098667Y0063844D02*
X0093823Y0063844D01*
X0094421Y0063245D02*
X0098667Y0063245D01*
X0099020Y0062647D02*
X0095020Y0062647D01*
X0095619Y0062048D02*
X0099619Y0062048D01*
X0100217Y0061450D02*
X0096217Y0061450D01*
X0096816Y0060851D02*
X0100816Y0060851D01*
X0101414Y0060253D02*
X0097414Y0060253D01*
X0098013Y0059654D02*
X0102013Y0059654D01*
X0102611Y0059056D02*
X0098611Y0059056D01*
X0095907Y0057260D02*
X0088863Y0057260D01*
X0088921Y0057360D02*
X0089010Y0057691D01*
X0089010Y0060712D01*
X0084467Y0060712D01*
X0084467Y0061312D01*
X0083867Y0061312D01*
X0083867Y0060712D01*
X0084467Y0060712D01*
X0084467Y0056562D01*
X0087881Y0056562D01*
X0088212Y0056651D01*
X0088508Y0056822D01*
X0088750Y0057064D01*
X0088921Y0057360D01*
X0089010Y0057859D02*
X0095308Y0057859D01*
X0094710Y0058457D02*
X0089010Y0058457D01*
X0089010Y0059056D02*
X0094111Y0059056D01*
X0093513Y0059654D02*
X0089010Y0059654D01*
X0089010Y0060253D02*
X0092914Y0060253D01*
X0092316Y0060851D02*
X0084467Y0060851D01*
X0084167Y0061012D02*
X0084167Y0076500D01*
X0084167Y0083000D01*
X0086167Y0085000D01*
X0131667Y0085000D01*
X0133667Y0083000D01*
X0133667Y0061512D01*
X0133967Y0061450D02*
X0144367Y0061450D01*
X0144367Y0061212D02*
X0139823Y0061212D01*
X0139823Y0058191D01*
X0139912Y0057860D01*
X0140083Y0057564D01*
X0140325Y0057322D01*
X0140622Y0057151D01*
X0140952Y0057062D01*
X0144367Y0057062D01*
X0144367Y0061212D01*
X0144967Y0061212D01*
X0144967Y0061812D01*
X0149510Y0061812D01*
X0149510Y0064833D01*
X0149421Y0065163D01*
X0149250Y0065460D01*
X0149008Y0065702D01*
X0148712Y0065873D01*
X0148381Y0065961D01*
X0144967Y0065961D01*
X0144967Y0061812D01*
X0144367Y0061812D01*
X0144367Y0065961D01*
X0140952Y0065961D01*
X0140622Y0065873D01*
X0140325Y0065702D01*
X0140083Y0065460D01*
X0139912Y0065163D01*
X0139823Y0064833D01*
X0139823Y0061812D01*
X0144367Y0061812D01*
X0144367Y0061212D01*
X0144367Y0060851D02*
X0144967Y0060851D01*
X0144967Y0061212D02*
X0144967Y0057062D01*
X0148381Y0057062D01*
X0148712Y0057151D01*
X0149008Y0057322D01*
X0149250Y0057564D01*
X0149421Y0057860D01*
X0149510Y0058191D01*
X0149510Y0061212D01*
X0144967Y0061212D01*
X0144967Y0061450D02*
X0152823Y0061450D01*
X0152823Y0061833D02*
X0152823Y0058812D01*
X0157367Y0058812D01*
X0157367Y0062961D01*
X0153952Y0062961D01*
X0153622Y0062873D01*
X0153325Y0062702D01*
X0153083Y0062460D01*
X0152912Y0062163D01*
X0152823Y0061833D01*
X0152881Y0062048D02*
X0149510Y0062048D01*
X0149510Y0062647D02*
X0153270Y0062647D01*
X0149510Y0063245D02*
X0182667Y0063245D01*
X0182667Y0062647D02*
X0162063Y0062647D01*
X0162008Y0062702D02*
X0161712Y0062873D01*
X0161381Y0062961D01*
X0157967Y0062961D01*
X0157967Y0058812D01*
X0162510Y0058812D01*
X0162510Y0061833D01*
X0162421Y0062163D01*
X0162250Y0062460D01*
X0162008Y0062702D01*
X0162452Y0062048D02*
X0182667Y0062048D01*
X0182667Y0061450D02*
X0162510Y0061450D01*
X0162510Y0060851D02*
X0182667Y0060851D01*
X0182667Y0060253D02*
X0162510Y0060253D01*
X0162510Y0059654D02*
X0182667Y0059654D01*
X0182667Y0059056D02*
X0162510Y0059056D01*
X0162510Y0058212D02*
X0157967Y0058212D01*
X0157967Y0058812D01*
X0157367Y0058812D01*
X0157367Y0058212D01*
X0152823Y0058212D01*
X0152823Y0055191D01*
X0152912Y0054860D01*
X0153083Y0054564D01*
X0153147Y0054500D01*
X0151667Y0054500D01*
X0150167Y0056000D01*
X0117667Y0056000D01*
X0117667Y0056500D01*
X0128167Y0067000D01*
X0165667Y0067000D01*
X0166167Y0067500D01*
X0182667Y0067500D01*
X0182667Y0054500D01*
X0162186Y0054500D01*
X0162250Y0054564D01*
X0162421Y0054860D01*
X0162510Y0055191D01*
X0162510Y0058212D01*
X0162510Y0057859D02*
X0182667Y0057859D01*
X0182667Y0058457D02*
X0157967Y0058457D01*
X0157967Y0059056D02*
X0157367Y0059056D01*
X0157367Y0059654D02*
X0157967Y0059654D01*
X0157967Y0060253D02*
X0157367Y0060253D01*
X0157367Y0060851D02*
X0157967Y0060851D01*
X0157967Y0061450D02*
X0157367Y0061450D01*
X0157367Y0062048D02*
X0157967Y0062048D01*
X0157967Y0062647D02*
X0157367Y0062647D01*
X0152823Y0060851D02*
X0149510Y0060851D01*
X0149510Y0060253D02*
X0152823Y0060253D01*
X0152823Y0059654D02*
X0149510Y0059654D01*
X0149510Y0059056D02*
X0152823Y0059056D01*
X0152823Y0057859D02*
X0149420Y0057859D01*
X0149510Y0058457D02*
X0157367Y0058457D01*
X0152823Y0057260D02*
X0148901Y0057260D01*
X0144967Y0057260D02*
X0144367Y0057260D01*
X0144367Y0057859D02*
X0144967Y0057859D01*
X0144967Y0058457D02*
X0144367Y0058457D01*
X0144367Y0059056D02*
X0144967Y0059056D01*
X0144967Y0059654D02*
X0144367Y0059654D01*
X0144367Y0060253D02*
X0144967Y0060253D01*
X0144967Y0062048D02*
X0144367Y0062048D01*
X0144367Y0062647D02*
X0144967Y0062647D01*
X0144967Y0063245D02*
X0144367Y0063245D01*
X0144367Y0063844D02*
X0144967Y0063844D01*
X0144967Y0064442D02*
X0144367Y0064442D01*
X0144367Y0065041D02*
X0144967Y0065041D01*
X0144967Y0065639D02*
X0144367Y0065639D01*
X0140263Y0065639D02*
X0138071Y0065639D01*
X0138008Y0065702D02*
X0137712Y0065873D01*
X0137381Y0065961D01*
X0133967Y0065961D01*
X0133967Y0061812D01*
X0138510Y0061812D01*
X0138510Y0064833D01*
X0138421Y0065163D01*
X0138250Y0065460D01*
X0138008Y0065702D01*
X0138454Y0065041D02*
X0139879Y0065041D01*
X0139823Y0064442D02*
X0138510Y0064442D01*
X0138510Y0063844D02*
X0139823Y0063844D01*
X0139823Y0063245D02*
X0138510Y0063245D01*
X0138510Y0062647D02*
X0139823Y0062647D01*
X0139823Y0062048D02*
X0138510Y0062048D01*
X0138510Y0061212D02*
X0133967Y0061212D01*
X0133967Y0061812D01*
X0133367Y0061812D01*
X0133367Y0065961D01*
X0129952Y0065961D01*
X0129622Y0065873D01*
X0129325Y0065702D01*
X0129083Y0065460D01*
X0128912Y0065163D01*
X0128823Y0064833D01*
X0128823Y0061812D01*
X0133367Y0061812D01*
X0133367Y0061212D01*
X0133967Y0061212D01*
X0133967Y0057062D01*
X0137381Y0057062D01*
X0137712Y0057151D01*
X0138008Y0057322D01*
X0138250Y0057564D01*
X0138421Y0057860D01*
X0138510Y0058191D01*
X0138510Y0061212D01*
X0138510Y0060851D02*
X0139823Y0060851D01*
X0139823Y0060253D02*
X0138510Y0060253D01*
X0138510Y0059654D02*
X0139823Y0059654D01*
X0139823Y0059056D02*
X0138510Y0059056D01*
X0138510Y0058457D02*
X0139823Y0058457D01*
X0139913Y0057859D02*
X0138420Y0057859D01*
X0137901Y0057260D02*
X0140432Y0057260D01*
X0133967Y0057260D02*
X0133367Y0057260D01*
X0133367Y0057062D02*
X0129952Y0057062D01*
X0129622Y0057151D01*
X0129325Y0057322D01*
X0129083Y0057564D01*
X0128912Y0057860D01*
X0128823Y0058191D01*
X0128823Y0061212D01*
X0133367Y0061212D01*
X0133367Y0057062D01*
X0133367Y0057859D02*
X0133967Y0057859D01*
X0133967Y0058457D02*
X0133367Y0058457D01*
X0133367Y0059056D02*
X0133967Y0059056D01*
X0133967Y0059654D02*
X0133367Y0059654D01*
X0133367Y0060253D02*
X0133967Y0060253D01*
X0133967Y0060851D02*
X0133367Y0060851D01*
X0133367Y0061450D02*
X0122616Y0061450D01*
X0123215Y0062048D02*
X0128823Y0062048D01*
X0128823Y0062647D02*
X0123813Y0062647D01*
X0124412Y0063245D02*
X0128823Y0063245D01*
X0128823Y0063844D02*
X0125010Y0063844D01*
X0125609Y0064442D02*
X0128823Y0064442D01*
X0128879Y0065041D02*
X0126207Y0065041D01*
X0126806Y0065639D02*
X0129263Y0065639D01*
X0128003Y0066836D02*
X0182667Y0066836D01*
X0182667Y0066238D02*
X0127404Y0066238D01*
X0124503Y0066836D02*
X0115233Y0066836D01*
X0115293Y0066238D02*
X0123904Y0066238D01*
X0123306Y0065639D02*
X0115353Y0065639D01*
X0115413Y0065041D02*
X0122707Y0065041D01*
X0122109Y0064442D02*
X0115472Y0064442D01*
X0115532Y0063844D02*
X0121510Y0063844D01*
X0120912Y0063245D02*
X0115592Y0063245D01*
X0115652Y0062647D02*
X0120313Y0062647D01*
X0119715Y0062048D02*
X0115215Y0062048D01*
X0115667Y0062500D02*
X0115167Y0067500D01*
X0111167Y0068000D01*
X0111167Y0069334D01*
X0111433Y0069263D01*
X0113666Y0069263D01*
X0113666Y0074200D01*
X0114266Y0074200D01*
X0114266Y0074800D01*
X0117628Y0074800D01*
X0117628Y0078608D01*
X0117539Y0078939D01*
X0117368Y0079235D01*
X0117126Y0079477D01*
X0116830Y0079648D01*
X0116499Y0079737D01*
X0114266Y0079737D01*
X0114266Y0074800D01*
X0113666Y0074800D01*
X0113666Y0079737D01*
X0111433Y0079737D01*
X0111167Y0079666D01*
X0111167Y0080500D01*
X0125167Y0080500D01*
X0125167Y0067500D01*
X0115167Y0057500D01*
X0115167Y0056788D01*
X0113572Y0056788D01*
X0112167Y0056788D01*
X0112167Y0059000D01*
X0115667Y0062500D01*
X0114616Y0061450D02*
X0119116Y0061450D01*
X0118518Y0060851D02*
X0114018Y0060851D01*
X0113419Y0060253D02*
X0117919Y0060253D01*
X0117321Y0059654D02*
X0112821Y0059654D01*
X0112222Y0059056D02*
X0116722Y0059056D01*
X0116124Y0058457D02*
X0112167Y0058457D01*
X0112167Y0057859D02*
X0115525Y0057859D01*
X0115167Y0057260D02*
X0112167Y0057260D01*
X0113572Y0056788D02*
X0113572Y0055000D01*
X0113572Y0055000D01*
X0113572Y0056788D01*
X0113572Y0056662D02*
X0113572Y0056662D01*
X0113572Y0056063D02*
X0113572Y0056063D01*
X0113572Y0055465D02*
X0113572Y0055465D01*
X0117667Y0056063D02*
X0152823Y0056063D01*
X0152823Y0055465D02*
X0150702Y0055465D01*
X0151301Y0054866D02*
X0152910Y0054866D01*
X0150096Y0053070D02*
X0149510Y0053070D01*
X0149510Y0052472D02*
X0150695Y0052472D01*
X0157367Y0051873D02*
X0157967Y0051873D01*
X0157967Y0051275D02*
X0157367Y0051275D01*
X0157367Y0050676D02*
X0157967Y0050676D01*
X0157967Y0050078D02*
X0157367Y0050078D01*
X0157367Y0049479D02*
X0157967Y0049479D01*
X0157967Y0048881D02*
X0157367Y0048881D01*
X0157367Y0047085D02*
X0157967Y0047085D01*
X0157967Y0047188D02*
X0157967Y0043039D01*
X0161381Y0043039D01*
X0161712Y0043127D01*
X0162008Y0043298D01*
X0162250Y0043540D01*
X0162421Y0043837D01*
X0162510Y0044167D01*
X0162510Y0047188D01*
X0157967Y0047188D01*
X0157967Y0046487D02*
X0157367Y0046487D01*
X0157367Y0045888D02*
X0157967Y0045888D01*
X0157967Y0045290D02*
X0157367Y0045290D01*
X0157367Y0044691D02*
X0157967Y0044691D01*
X0157967Y0044093D02*
X0157367Y0044093D01*
X0157367Y0043494D02*
X0157967Y0043494D01*
X0157079Y0042297D02*
X0171311Y0042297D01*
X0170467Y0043494D02*
X0169867Y0043494D01*
X0169867Y0043062D02*
X0169867Y0047212D01*
X0165323Y0047212D01*
X0165323Y0044191D01*
X0165412Y0043860D01*
X0165583Y0043564D01*
X0165825Y0043322D01*
X0166122Y0043151D01*
X0166452Y0043062D01*
X0169867Y0043062D01*
X0169867Y0044093D02*
X0170467Y0044093D01*
X0170467Y0044691D02*
X0169867Y0044691D01*
X0169867Y0045290D02*
X0170467Y0045290D01*
X0170467Y0045888D02*
X0169867Y0045888D01*
X0169867Y0046487D02*
X0170467Y0046487D01*
X0170467Y0047085D02*
X0169867Y0047085D01*
X0169867Y0048881D02*
X0170467Y0048881D01*
X0170467Y0049479D02*
X0169867Y0049479D01*
X0169867Y0050078D02*
X0170467Y0050078D01*
X0170467Y0050676D02*
X0169867Y0050676D01*
X0169867Y0051275D02*
X0170467Y0051275D01*
X0170467Y0051873D02*
X0169867Y0051873D01*
X0166124Y0051873D02*
X0161621Y0051873D01*
X0162343Y0051275D02*
X0165476Y0051275D01*
X0165323Y0050676D02*
X0162510Y0050676D01*
X0162510Y0050078D02*
X0165323Y0050078D01*
X0165323Y0049479D02*
X0162510Y0049479D01*
X0162510Y0048881D02*
X0165323Y0048881D01*
X0165323Y0048282D02*
X0162510Y0048282D01*
X0162510Y0047085D02*
X0165323Y0047085D01*
X0165323Y0046487D02*
X0162510Y0046487D01*
X0162510Y0045888D02*
X0165323Y0045888D01*
X0165323Y0045290D02*
X0162510Y0045290D01*
X0162510Y0044691D02*
X0165323Y0044691D01*
X0165350Y0044093D02*
X0162490Y0044093D01*
X0162204Y0043494D02*
X0165653Y0043494D01*
X0153129Y0043494D02*
X0140620Y0043494D01*
X0134566Y0041100D02*
X0129486Y0041100D01*
X0128409Y0041699D02*
X0133469Y0041699D01*
X0132372Y0042297D02*
X0127332Y0042297D01*
X0130663Y0040502D02*
X0135663Y0040502D01*
X0133057Y0039305D02*
X0150667Y0039305D01*
X0150667Y0039903D02*
X0131860Y0039903D01*
X0134254Y0038706D02*
X0150667Y0038706D01*
X0150667Y0038108D02*
X0135451Y0038108D01*
X0135667Y0037509D02*
X0150667Y0037509D01*
X0150667Y0036911D02*
X0135667Y0036911D01*
X0135667Y0036312D02*
X0150667Y0036312D01*
X0150667Y0035714D02*
X0135667Y0035714D01*
X0135667Y0035115D02*
X0150667Y0035115D01*
X0150667Y0034517D02*
X0135667Y0034517D01*
X0135667Y0033918D02*
X0150667Y0033918D01*
X0150667Y0033320D02*
X0135667Y0033320D01*
X0134758Y0033320D02*
X0104398Y0033320D01*
X0104410Y0033918D02*
X0122289Y0033918D01*
X0120467Y0031524D02*
X0119867Y0031524D01*
X0119867Y0030926D02*
X0120467Y0030926D01*
X0120467Y0030327D02*
X0119867Y0030327D01*
X0119867Y0029729D02*
X0120467Y0029729D01*
X0120467Y0029130D02*
X0119867Y0029130D01*
X0119867Y0028532D02*
X0120467Y0028532D01*
X0120467Y0027933D02*
X0119867Y0027933D01*
X0115323Y0028532D02*
X0104305Y0028532D01*
X0104316Y0029130D02*
X0115323Y0029130D01*
X0115323Y0029729D02*
X0104328Y0029729D01*
X0104340Y0030327D02*
X0115323Y0030327D01*
X0115355Y0030926D02*
X0104351Y0030926D01*
X0104363Y0031524D02*
X0115671Y0031524D01*
X0112667Y0031500D02*
X0108454Y0035713D01*
X0110167Y0035714D02*
X0104445Y0035714D01*
X0104457Y0036312D02*
X0110167Y0036312D01*
X0110167Y0036911D02*
X0104469Y0036911D01*
X0104481Y0037509D02*
X0110167Y0037509D01*
X0110167Y0038108D02*
X0104492Y0038108D01*
X0104504Y0038706D02*
X0110167Y0038706D01*
X0110167Y0039305D02*
X0104516Y0039305D01*
X0104527Y0039903D02*
X0110167Y0039903D01*
X0110167Y0040502D02*
X0104539Y0040502D01*
X0104551Y0041100D02*
X0110167Y0041100D01*
X0110167Y0041699D02*
X0104563Y0041699D01*
X0104574Y0042297D02*
X0110167Y0042297D01*
X0110029Y0042712D02*
X0110029Y0043287D01*
X0110029Y0043287D01*
X0110029Y0042712D01*
X0110029Y0042896D02*
X0110029Y0042896D01*
X0108454Y0042896D02*
X0108454Y0042896D01*
X0106879Y0042896D02*
X0106879Y0042896D01*
X0105305Y0042896D02*
X0105304Y0042896D01*
X0093245Y0050078D02*
X0084467Y0050078D01*
X0074367Y0050078D02*
X0067745Y0050078D01*
X0068343Y0050676D02*
X0069823Y0050676D01*
X0069823Y0051275D02*
X0068942Y0051275D01*
X0069540Y0051873D02*
X0069823Y0051873D01*
X0074367Y0056662D02*
X0074967Y0056662D01*
X0074967Y0056562D02*
X0074967Y0060712D01*
X0083867Y0060712D01*
X0083867Y0056562D01*
X0080452Y0056562D01*
X0080122Y0056651D01*
X0079825Y0056822D01*
X0079583Y0057064D01*
X0079417Y0057352D01*
X0079250Y0057064D01*
X0079008Y0056822D01*
X0078712Y0056651D01*
X0078381Y0056562D01*
X0074967Y0056562D01*
X0074967Y0057260D02*
X0074367Y0057260D01*
X0074367Y0057859D02*
X0074967Y0057859D01*
X0074967Y0058457D02*
X0074367Y0058457D01*
X0074367Y0059056D02*
X0074967Y0059056D01*
X0074967Y0059654D02*
X0074367Y0059654D01*
X0074367Y0060253D02*
X0074967Y0060253D01*
X0074967Y0060851D02*
X0083867Y0060851D01*
X0083867Y0060253D02*
X0084467Y0060253D01*
X0084467Y0059654D02*
X0083867Y0059654D01*
X0083867Y0059056D02*
X0084467Y0059056D01*
X0084467Y0058457D02*
X0083867Y0058457D01*
X0083867Y0057859D02*
X0084467Y0057859D01*
X0084467Y0057260D02*
X0083867Y0057260D01*
X0083867Y0056662D02*
X0084467Y0056662D01*
X0088230Y0056662D02*
X0096505Y0056662D01*
X0080103Y0056662D02*
X0078730Y0056662D01*
X0079363Y0057260D02*
X0079470Y0057260D01*
X0069823Y0057859D02*
X0069808Y0057859D01*
X0069823Y0058457D02*
X0069210Y0058457D01*
X0066935Y0058457D02*
X0041359Y0058457D01*
X0041804Y0057859D02*
X0043167Y0057859D01*
X0043167Y0057260D02*
X0041880Y0057260D01*
X0041880Y0056662D02*
X0043167Y0056662D01*
X0043167Y0056063D02*
X0041880Y0056063D01*
X0032667Y0060851D02*
X0074367Y0060851D01*
X0074367Y0061450D02*
X0074967Y0061450D01*
X0074967Y0062048D02*
X0074367Y0062048D01*
X0074367Y0062647D02*
X0074967Y0062647D01*
X0074967Y0063245D02*
X0074367Y0063245D01*
X0074367Y0063844D02*
X0074967Y0063844D01*
X0074967Y0064442D02*
X0074367Y0064442D01*
X0074367Y0065041D02*
X0074967Y0065041D01*
X0079169Y0065041D02*
X0079664Y0065041D01*
X0083867Y0065041D02*
X0084467Y0065041D01*
X0084467Y0064442D02*
X0083867Y0064442D01*
X0083867Y0063844D02*
X0084467Y0063844D01*
X0084467Y0063245D02*
X0083867Y0063245D01*
X0083867Y0062647D02*
X0084467Y0062647D01*
X0084467Y0062048D02*
X0083867Y0062048D01*
X0083867Y0061450D02*
X0084467Y0061450D01*
X0089010Y0061450D02*
X0091717Y0061450D01*
X0091118Y0062048D02*
X0089010Y0062048D01*
X0089010Y0062647D02*
X0090520Y0062647D01*
X0089921Y0063245D02*
X0089010Y0063245D01*
X0089010Y0063844D02*
X0089323Y0063844D01*
X0101667Y0063844D02*
X0112167Y0063844D01*
X0112167Y0064442D02*
X0101667Y0064442D01*
X0101667Y0065041D02*
X0112167Y0065041D01*
X0112167Y0065639D02*
X0101667Y0065639D01*
X0101667Y0066238D02*
X0112167Y0066238D01*
X0111167Y0068033D02*
X0125167Y0068033D01*
X0125167Y0068632D02*
X0111167Y0068632D01*
X0111167Y0069230D02*
X0125167Y0069230D01*
X0125167Y0069829D02*
X0117405Y0069829D01*
X0117368Y0069765D02*
X0117539Y0070061D01*
X0117628Y0070392D01*
X0117628Y0074200D01*
X0114266Y0074200D01*
X0114266Y0069263D01*
X0116499Y0069263D01*
X0116830Y0069352D01*
X0117126Y0069523D01*
X0117368Y0069765D01*
X0117628Y0070427D02*
X0125167Y0070427D01*
X0125167Y0071026D02*
X0117628Y0071026D01*
X0117628Y0071624D02*
X0125167Y0071624D01*
X0125167Y0072223D02*
X0117628Y0072223D01*
X0117628Y0072821D02*
X0125167Y0072821D01*
X0125167Y0073420D02*
X0117628Y0073420D01*
X0117628Y0074018D02*
X0125167Y0074018D01*
X0125167Y0074617D02*
X0114266Y0074617D01*
X0114266Y0075215D02*
X0113666Y0075215D01*
X0113666Y0075814D02*
X0114266Y0075814D01*
X0114266Y0076412D02*
X0113666Y0076412D01*
X0113666Y0077011D02*
X0114266Y0077011D01*
X0114266Y0077609D02*
X0113666Y0077609D01*
X0113666Y0078208D02*
X0114266Y0078208D01*
X0114266Y0078806D02*
X0113666Y0078806D01*
X0113666Y0079405D02*
X0114266Y0079405D01*
X0117199Y0079405D02*
X0125167Y0079405D01*
X0125167Y0080003D02*
X0111167Y0080003D01*
X0117575Y0078806D02*
X0125167Y0078806D01*
X0125167Y0078208D02*
X0117628Y0078208D01*
X0117628Y0077609D02*
X0125167Y0077609D01*
X0125167Y0077011D02*
X0117628Y0077011D01*
X0117628Y0076412D02*
X0125167Y0076412D01*
X0125167Y0075814D02*
X0117628Y0075814D01*
X0117628Y0075215D02*
X0125167Y0075215D01*
X0114266Y0074018D02*
X0113666Y0074018D01*
X0113666Y0073420D02*
X0114266Y0073420D01*
X0114266Y0072821D02*
X0113666Y0072821D01*
X0113666Y0072223D02*
X0114266Y0072223D01*
X0114266Y0071624D02*
X0113666Y0071624D01*
X0113666Y0071026D02*
X0114266Y0071026D01*
X0114266Y0070427D02*
X0113666Y0070427D01*
X0113666Y0069829D02*
X0114266Y0069829D01*
X0115173Y0067435D02*
X0125101Y0067435D01*
X0133367Y0065639D02*
X0133967Y0065639D01*
X0133967Y0065041D02*
X0133367Y0065041D01*
X0133367Y0064442D02*
X0133967Y0064442D01*
X0133967Y0063844D02*
X0133367Y0063844D01*
X0133367Y0063245D02*
X0133967Y0063245D01*
X0133967Y0062647D02*
X0133367Y0062647D01*
X0133367Y0062048D02*
X0133967Y0062048D01*
X0128823Y0060851D02*
X0122018Y0060851D01*
X0121419Y0060253D02*
X0128823Y0060253D01*
X0128823Y0059654D02*
X0120821Y0059654D01*
X0120222Y0059056D02*
X0128823Y0059056D01*
X0128823Y0058457D02*
X0119624Y0058457D01*
X0119025Y0057859D02*
X0128913Y0057859D01*
X0129432Y0057260D02*
X0118427Y0057260D01*
X0117828Y0056662D02*
X0152823Y0056662D01*
X0162510Y0056662D02*
X0182667Y0056662D01*
X0182667Y0057260D02*
X0162510Y0057260D01*
X0162510Y0056063D02*
X0182667Y0056063D01*
X0182667Y0055465D02*
X0162510Y0055465D01*
X0162423Y0054866D02*
X0182667Y0054866D01*
X0152823Y0046487D02*
X0149197Y0046487D01*
X0144967Y0046487D02*
X0144367Y0046487D01*
X0144367Y0047085D02*
X0144967Y0047085D01*
X0144967Y0047684D02*
X0144367Y0047684D01*
X0144367Y0048282D02*
X0144967Y0048282D01*
X0144967Y0048881D02*
X0144367Y0048881D01*
X0144367Y0049479D02*
X0144967Y0049479D01*
X0139823Y0049479D02*
X0138510Y0049479D01*
X0138510Y0048881D02*
X0139823Y0048881D01*
X0139823Y0048282D02*
X0138510Y0048282D01*
X0138510Y0047684D02*
X0139823Y0047684D01*
X0139845Y0047085D02*
X0138488Y0047085D01*
X0138197Y0046487D02*
X0140137Y0046487D01*
X0133967Y0046487D02*
X0133367Y0046487D01*
X0133367Y0047085D02*
X0133967Y0047085D01*
X0133967Y0047684D02*
X0133367Y0047684D01*
X0133367Y0048282D02*
X0133967Y0048282D01*
X0133967Y0048881D02*
X0133367Y0048881D01*
X0133367Y0049479D02*
X0133967Y0049479D01*
X0138510Y0050078D02*
X0139823Y0050078D01*
X0139823Y0051275D02*
X0138510Y0051275D01*
X0138510Y0051873D02*
X0139823Y0051873D01*
X0139823Y0052472D02*
X0138510Y0052472D01*
X0138510Y0053070D02*
X0139823Y0053070D01*
X0112167Y0062048D02*
X0102777Y0062048D01*
X0102079Y0062647D02*
X0112167Y0062647D01*
X0112167Y0063245D02*
X0101667Y0063245D01*
X0103475Y0061450D02*
X0111433Y0061450D01*
X0101667Y0069829D02*
X0101067Y0069829D01*
X0101067Y0070427D02*
X0101667Y0070427D01*
X0101667Y0071026D02*
X0101067Y0071026D01*
X0101067Y0071624D02*
X0101667Y0071624D01*
X0101667Y0072223D02*
X0101067Y0072223D01*
X0101067Y0072821D02*
X0101667Y0072821D01*
X0101667Y0073420D02*
X0101067Y0073420D01*
X0101067Y0074018D02*
X0101667Y0074018D01*
X0101067Y0074617D02*
X0090167Y0074617D01*
X0090167Y0075215D02*
X0097705Y0075215D01*
X0097705Y0074800D02*
X0101067Y0074800D01*
X0101067Y0079737D01*
X0098834Y0079737D01*
X0098503Y0079648D01*
X0098207Y0079477D01*
X0097965Y0079235D01*
X0097794Y0078939D01*
X0097705Y0078608D01*
X0097705Y0074800D01*
X0097705Y0075814D02*
X0090167Y0075814D01*
X0090167Y0076412D02*
X0097705Y0076412D01*
X0097705Y0077011D02*
X0090167Y0077011D01*
X0090167Y0077609D02*
X0097705Y0077609D01*
X0097705Y0078208D02*
X0090167Y0078208D01*
X0090167Y0078806D02*
X0097758Y0078806D01*
X0098135Y0079405D02*
X0090167Y0079405D01*
X0090167Y0080003D02*
X0103167Y0080003D01*
X0101667Y0079405D02*
X0101067Y0079405D01*
X0101067Y0078806D02*
X0101667Y0078806D01*
X0101667Y0078208D02*
X0101067Y0078208D01*
X0101067Y0077609D02*
X0101667Y0077609D01*
X0101667Y0077011D02*
X0101067Y0077011D01*
X0101067Y0076412D02*
X0101667Y0076412D01*
X0101667Y0075814D02*
X0101067Y0075814D01*
X0101067Y0075215D02*
X0101667Y0075215D01*
X0149071Y0065639D02*
X0182667Y0065639D01*
X0182667Y0065041D02*
X0149454Y0065041D01*
X0149510Y0064442D02*
X0182667Y0064442D01*
X0182667Y0063844D02*
X0149510Y0063844D01*
X0166101Y0067435D02*
X0182667Y0067435D01*
X0191736Y0042896D02*
X0148850Y0042896D01*
X0110167Y0035115D02*
X0104434Y0035115D01*
X0104422Y0034517D02*
X0110167Y0034517D01*
X0109667Y0031500D02*
X0106879Y0034287D01*
X0105304Y0032862D02*
X0106667Y0031500D01*
X0108167Y0029000D02*
X0110029Y0030862D01*
X0119867Y0026137D02*
X0120467Y0026137D01*
X0120467Y0025539D02*
X0119867Y0025539D01*
X0119867Y0024940D02*
X0120467Y0024940D01*
X0120467Y0024342D02*
X0119867Y0024342D01*
X0119867Y0023743D02*
X0120467Y0023743D01*
X0120467Y0023145D02*
X0119867Y0023145D01*
D23*
X0101167Y0011500D02*
X0095167Y0017500D01*
X0101167Y0011500D02*
X0108155Y0011500D01*
X0108655Y0012000D01*
X0119678Y0012000D02*
X0266301Y0012000D01*
X0271667Y0014866D01*
X0283667Y0032000D02*
X0293367Y0032000D01*
X0293430Y0032063D01*
X0293430Y0039937D02*
X0293367Y0040000D01*
X0263667Y0040000D01*
X0261155Y0037488D01*
X0258167Y0037488D01*
X0255690Y0035012D01*
X0244667Y0035012D01*
X0217167Y0032000D02*
X0212678Y0036488D01*
X0205667Y0036488D01*
X0205643Y0036512D01*
X0186167Y0036512D01*
X0170167Y0036488D02*
X0170167Y0030500D01*
X0120167Y0038512D02*
X0113615Y0044563D01*
X0113572Y0047063D01*
X0101810Y0047063D02*
X0098230Y0047063D01*
X0092167Y0041000D01*
X0092167Y0037000D01*
X0113572Y0051000D02*
X0113572Y0052969D01*
M02*
